<svg xmlns="http://www.w3.org/2000/svg" xmlns:xlink="http://www.w3.org/1999/xlink" width="130.626" height="146" viewBox="0 0 130.626 146">
  <defs>
    <linearGradient id="linear-gradient" x1="0.5" x2="0.5" y2="0.933" gradientUnits="objectBoundingBox">
      <stop offset="0" stop-color="#0063f8"/>
      <stop offset="1" stop-color="#5433ff"/>
    </linearGradient>
    <linearGradient id="linear-gradient-2" x1="0.433" y1="0.337" x2="1.069" y2="1.413" gradientUnits="objectBoundingBox">
      <stop offset="0" stop-color="#fc0"/>
      <stop offset="1" stop-color="#ff8801"/>
    </linearGradient>
    <linearGradient id="linear-gradient-3" x2="0.5" y2="1.038" xlink:href="#linear-gradient"/>
  </defs>
  <g id="Group_8603" data-name="Group 8603" transform="translate(-114 -245)">
    <g id="Group_7267" data-name="Group 7267" transform="translate(114 347.448)">
      <path id="Path_1357" data-name="Path 1357" d="M22.524,46.649A17.9,17.9,0,0,1,9.75,41.133a18.7,18.7,0,0,1,.242-26.057L21.218,3.826A2.274,2.274,0,0,1,22.936,3.1a2.419,2.419,0,0,1,1.718.75L35.686,15.27a18.7,18.7,0,0,1-.218,26.057,17.734,17.734,0,0,1-12.944,5.323Z" transform="translate(-4.585 -3.1)" fill="url(#linear-gradient)"/>
      <path id="Union_18" data-name="Union 18" d="M85.231,32.474V20.862a7.272,7.272,0,0,0-14.543,0V32.474h-4.34V20.862a11.612,11.612,0,1,1,23.224,0V32.474ZM38.05,20.862a11.612,11.612,0,1,1,23.224,0,13.17,13.17,0,0,1-.226,2.2H42.728a7.242,7.242,0,0,0,6.934,5.073,7.475,7.475,0,0,0,5.186-2.142H60.09a11.619,11.619,0,0,1-22.041-5.13Zm4.679-2.142H56.6a7.348,7.348,0,0,0-6.933-5.073A7.242,7.242,0,0,0,42.728,18.72ZM24.07,32.474V20.862A11.632,11.632,0,0,1,35.682,9.25V13.59a7.241,7.241,0,0,0-7.215,7.272V32.474Zm-13.98,0V20.862A11.632,11.632,0,0,1,21.7,9.25V13.59a7.241,7.241,0,0,0-7.215,7.272V32.474Zm-9.47,0V9.25h4.4V32.474ZM0,2.818A2.818,2.818,0,1,1,2.818,5.637,2.818,2.818,0,0,1,0,2.818Z" transform="translate(41.054 2.729)" fill="#00204a"/>
      <g id="Group_7265" data-name="Group 7265" transform="translate(3.844 9.484)" opacity="0.6">
        <path id="Path_1356" data-name="Path 1356" d="M18280.4-10704.682a.661.661,0,0,1-.125-.011.765.765,0,0,1-.635-.875,12.683,12.683,0,0,1,1.746-3.986c1.49-2.527,6.012-6.541,6.205-6.711a.765.765,0,0,1,1.082.066.766.766,0,0,1-.066,1.085c-.043.04-4.529,4.022-5.9,6.341a12.021,12.021,0,0,0-1.551,3.452A.774.774,0,0,1,18280.4-10704.682Z" transform="translate(-18278.67 10716.458)" fill="#fff"/>
        <circle id="Ellipse_748" data-name="Ellipse 748" cx="1.025" cy="1.025" r="1.025" transform="translate(0 12.718)" fill="#fff"/>
      </g>
      <path id="Intersection_23" data-name="Intersection 23" d="M0,27.991,11.386,0l13.78,24.776q-.522.666-1.112,1.294L11.412,10.137,6.49,22.235,15.046,19.6.661,28.477Q.325,28.242,0,27.991Z" transform="translate(7.148 11.825)" fill="#fff"/>
    </g>
    <g id="Group_7352" data-name="Group 7352" transform="translate(126.812 245)">
      <path id="Union_8" data-name="Union 8" d="M97.254,86.815l-.277-.073a256.7,256.7,0,0,0-31.944-6.275c-.849-2.9-1.563-5.879-2.129-8.849a96.872,96.872,0,0,1-1.342-9.685c-.156-1.777-.263-3.577-.321-5.351,2.624.68,5.267,1.443,7.842,2.248,2.962.926,5.947,1.944,8.856,3.03s5.832,2.26,8.683,3.5a95.3,95.3,0,0,0,12.492,18.1c.029.029.054.059.08.09a2.021,2.021,0,0,1-1.939,3.269Zm12.864-13.852h0ZM70.293,54.939a181.842,181.842,0,0,0-66.379-7.78l-.275.019h-.11a3.512,3.512,0,0,1-.26-7.016H3.7q1.386-.02,2.77-.017c3.077,0,6.2.088,9.286.252,4.357.228,8.752.615,13.061,1.154,4.267.53,8.56,1.222,12.762,2.054,4.161.824,8.343,1.806,12.429,2.921,4.049,1.106,8.108,2.37,12.064,3.757a179.528,179.528,0,0,1,44.042,22.681A179.481,179.481,0,0,0,70.293,54.939Zm10.354-3.292h0l0,.007ZM67.425,46.429c-1.91-.67-3.866-1.319-5.814-1.929.246-2.6.606-5.227,1.067-7.8s1.038-5.165,1.715-7.7A95.354,95.354,0,0,1,77.657,0a95.656,95.656,0,0,0,2.99,51.647C76.326,49.744,71.878,47.989,67.425,46.429Z" transform="translate(0 8.978)" fill="url(#linear-gradient-2)"/>
      <path id="Union_5" data-name="Union 5" d="M26.43,87.278c-7.432,0-14.953.323-22.359.96l-.4.034-.121.01H3.509A3.509,3.509,0,0,1,0,84.776a3,3,0,0,1,.019-.352l.041-.28a103.331,103.331,0,0,1,6.69-24.3c1.458-.036,2.934-.053,4.391-.053,3.1,0,6.232.082,9.315.243,5.043.265,10.13.748,15.122,1.439s10,1.6,14.89,2.719c.015,2.846.15,5.731.4,8.576A105.215,105.215,0,0,0,53.5,88.7,258.591,258.591,0,0,0,26.43,87.278Zm23.5-35.713c-4.178-1.14-8.464-2.138-12.711-2.987-4.3-.851-8.689-1.558-13.049-2.1C20.827,46.06,17.4,45.729,14,45.491c1.283-2.1,2.657-4.185,4.078-6.2s2.95-4,4.511-5.908a104.289,104.289,0,0,1,22.153-20.2h0A103.234,103.234,0,0,1,72.245,0,103.737,103.737,0,0,0,51.124,51.894Z" transform="translate(5.141)" fill="url(#linear-gradient-3)"/>
    </g>
  </g>
</svg>
