<svg xmlns="http://www.w3.org/2000/svg" xmlns:xlink="http://www.w3.org/1999/xlink" width="140.152" height="156.612" viewBox="0 0 140.152 156.612">
  <defs>
    <linearGradient id="linear-gradient" x1="0.5" x2="0.5" y2="0.933" gradientUnits="objectBoundingBox">
      <stop offset="0" stop-color="#f0f5f9"/>
      <stop offset="1" stop-color="#f0f5f9"/>
    </linearGradient>
    <linearGradient id="linear-gradient-2" x1="0.511" y1="0.494" x2="1.069" y2="1.413" gradientUnits="objectBoundingBox">
      <stop offset="0" stop-color="#fff"/>
      <stop offset="1" stop-color="#f2f3f8"/>
    </linearGradient>
    <linearGradient id="linear-gradient-3" x1="0.5" y1="0" x2="0.5" y2="1.038" xlink:href="#linear-gradient-2"/>
  </defs>
  <g id="Group_8598" data-name="Group 8598" transform="translate(15728.806 9038)">
    <path id="Path_1357" data-name="Path 1357" d="M23.833,49.825a19.209,19.209,0,0,1-13.706-5.918,20.066,20.066,0,0,1,.26-27.957L22.431,3.879A2.44,2.44,0,0,1,24.274,3.1a2.6,2.6,0,0,1,1.843.8L37.954,16.157a20.066,20.066,0,0,1-.234,27.957A19.027,19.027,0,0,1,23.833,49.825Z" transform="translate(-15733.392 -8931.215)" fill="url(#linear-gradient)"/>
    <path id="Intersection_22" data-name="Intersection 22" d="M0,30.032,12.216,0,27,26.583q-.56.715-1.193,1.389l-13.564-17.1-5.28,12.98,9.179-2.827L.709,30.554Q.349,30.3,0,30.032Z" transform="translate(-15721.108 -8915.428)" fill="#0063f8"/>
    <path id="Union_18" data-name="Union 18" d="M91.447,34.842V22.383a7.8,7.8,0,0,0-15.6,0V34.842H71.186V22.383a12.459,12.459,0,1,1,24.918,0V34.842ZM40.824,22.383a12.459,12.459,0,1,1,24.918,0,14.13,14.13,0,0,1-.242,2.359H45.844a7.77,7.77,0,0,0,7.439,5.443,8.02,8.02,0,0,0,5.564-2.3h5.625a12.466,12.466,0,0,1-23.648-5.5Zm5.02-2.3H60.723a7.883,7.883,0,0,0-7.439-5.443A7.77,7.77,0,0,0,45.844,20.085ZM25.825,34.842V22.383A12.48,12.48,0,0,1,38.284,9.924v4.657a7.769,7.769,0,0,0-7.742,7.8V34.842Zm-15,0V22.383A12.48,12.48,0,0,1,23.285,9.924v4.657a7.769,7.769,0,0,0-7.742,7.8V34.842Zm-10.161,0V9.924H5.383V34.842ZM0,3.024A3.024,3.024,0,1,1,3.024,6.048,3.024,3.024,0,0,1,0,3.024Z" transform="translate(-15684.758 -8925.188)" fill="#fff"/>
    <g id="Group_7265" data-name="Group 7265" transform="translate(-15724.683 -8917.939)" opacity="0.2">
      <path id="Path_1356" data-name="Path 1356" d="M18280.455-10703.823a1.1,1.1,0,0,1-.137-.011.822.822,0,0,1-.678-.939,13.585,13.585,0,0,1,1.873-4.279c1.6-2.71,6.449-7.017,6.654-7.2a.827.827,0,0,1,1.166.072.827.827,0,0,1-.072,1.164c-.047.042-4.861,4.315-6.328,6.8a13.033,13.033,0,0,0-1.666,3.7A.83.83,0,0,1,18280.455-10703.823Z" transform="translate(-18278.604 10716.459)" fill="#0063f8"/>
      <circle id="Ellipse_748" data-name="Ellipse 748" cx="1.1" cy="1.1" r="1.1" transform="translate(0 13.645)" fill="#0063f8"/>
    </g>
    <g id="Group_7352" data-name="Group 7352" transform="translate(-15715.008 -9038)">
      <path id="Union_8" data-name="Union 8" d="M104.346,93.146l-.3-.078a275.426,275.426,0,0,0-34.274-6.733c-.911-3.112-1.677-6.308-2.284-9.495a103.938,103.938,0,0,1-1.44-10.391c-.168-1.907-.283-3.838-.345-5.741,2.815.729,5.652,1.548,8.413,2.412,3.178.994,6.381,2.086,9.5,3.25s6.257,2.425,9.316,3.754a102.247,102.247,0,0,0,13.4,19.418c.031.031.058.064.086.1a2.168,2.168,0,0,1-2.08,3.508Zm13.8-14.863h0ZM75.42,58.945A195.1,195.1,0,0,0,4.2,50.6l-.3.02H3.786a3.768,3.768,0,0,1-.279-7.527h.467q1.488-.022,2.972-.018c3.3,0,6.654.095,9.963.27,4.674.244,9.391.66,14.014,1.238,4.578.569,9.185,1.311,13.693,2.2,4.465.884,8.951,1.938,13.336,3.134,4.344,1.187,8.7,2.543,12.944,4.031a192.621,192.621,0,0,1,47.254,24.335A192.57,192.57,0,0,0,75.42,58.945Zm11.109-3.532h0l0,.007Zm-14.186-5.6C70.293,49.1,68.195,48.4,66.1,47.746c.264-2.793.651-5.608,1.145-8.366s1.114-5.542,1.84-8.258A102.308,102.308,0,0,1,83.321,0a102.632,102.632,0,0,0,3.208,55.413C81.893,53.372,77.12,51.489,72.342,49.815Z" transform="translate(0 9.633)" fill="url(#linear-gradient-2)"/>
      <path id="Union_5" data-name="Union 5" d="M28.358,93.643c-7.974,0-16.043.346-23.99,1.03l-.434.036-.129.011h-.04A3.765,3.765,0,0,1,0,90.958a3.22,3.22,0,0,1,.02-.377l.044-.3A110.867,110.867,0,0,1,7.241,64.21c1.564-.038,3.148-.056,4.711-.056,3.325,0,6.687.087,9.994.261,5.411.284,10.869.8,16.225,1.544S48.9,67.678,54.147,68.875c.016,3.054.16,6.149.429,9.2A112.888,112.888,0,0,0,57.4,95.164,277.451,277.451,0,0,0,28.358,93.643ZM53.576,55.326c-4.483-1.223-9.081-2.293-13.638-3.2-4.612-.913-9.323-1.672-14-2.255-3.591-.447-7.265-.8-10.911-1.057,1.376-2.257,2.851-4.49,4.375-6.649s3.165-4.292,4.84-6.339A111.9,111.9,0,0,1,48.01,14.149h0A110.762,110.762,0,0,1,77.513,0,111.3,111.3,0,0,0,54.852,55.678Z" transform="translate(5.516)" fill="url(#linear-gradient-3)"/>
    </g>
  </g>
</svg>
