<svg xmlns="http://www.w3.org/2000/svg" xmlns:xlink="http://www.w3.org/1999/xlink" width="360" height="111" viewBox="0 0 360 111">
  <defs>
    <clipPath id="clip-path">
      <rect id="Rectangle_5138" data-name="Rectangle 5138" width="360" height="111" transform="translate(0 529)" fill="#fff"/>
    </clipPath>
    <linearGradient id="linear-gradient" x1="0.845" y1="1" x2="0.328" y2="1" gradientUnits="objectBoundingBox">
      <stop offset="0" stop-color="#0063f8"/>
      <stop offset="1" stop-color="#5433ff"/>
    </linearGradient>
    <linearGradient id="linear-gradient-2" y1="1" x2="0.672" y2="1" gradientUnits="objectBoundingBox">
      <stop offset="0" stop-color="#5433ff"/>
      <stop offset="1" stop-color="#0063f8"/>
    </linearGradient>
  </defs>
  <g id="Mask_Group_21" data-name="Mask Group 21" transform="translate(0 -529)" clip-path="url(#clip-path)">
    <path id="Path_1369" data-name="Path 1369" d="M559.721,57.061l-6.647-2.236c-6.686-2.4-13.843,3.3-42.226,8.646s-26.567,35.988-40.171,40.5c-13.216,4.345-17.459-15.274-31.063-22.15-13.177-6.623-26.431-2.4-39.647-6.749-13.488-4.514-26.82-18.012-40.036-18.012-13.449,0-26.82,13.5-40.036,29.233-13.371,15.9-26.82,33.62-40.036,45.01-13.332,11.39-26.82,15.608-40.036,2.236-13.254-13.625-48.783-52.853-68.982-49.89s-37.52,45.545-50.736,43.141a120.323,120.323,0,0,0-40.036,0c-13.449,2.4-26.82,6.623-40.036,2.278-13.371-4.514-26.82-18.012-33.428-24.762L0,97.557v67.493H559.721Z" transform="translate(-108.721 474.741)" opacity="0.2" fill="url(#linear-gradient)"/>
    <path id="Path_1368" data-name="Path 1368" d="M0,56.611l7.213-2.037c7.256-2.191,21.893-6.034,36.236,4.074,14.385,10.262,23.95,46.786,38.714,50.9,14.342,3.959,33.419-24.111,48.184-30.376,14.3-6.034,26.411,8.032,40.753,4.074,14.638-4.112,31.381-26.634,45.723-26.634,14.6,0,29.107,12.3,43.449,26.634,14.511,14.489,29.107,30.631,43.449,41.008,14.469,10.377,29.107,14.22,43.449,2.037,14.384-12.414,28.685-40.854,43.449-43.045,14.342-2.037,28.685,22.56,43.449,32.822,14.3,10.108,28.685,6.265,43.027,4.074a155.224,155.224,0,0,1,43.449,0c14.6,2.191,29.107,6.034,43.449,2.075,14.511-4.112,29.107-16.411,36.278-22.56l7.171-6.149V155H0Z" transform="translate(-31.44 485.001)" fill="url(#linear-gradient-2)"/>
  </g>
</svg>
