<svg id="Layer_2" data-name="Layer 2" xmlns="http://www.w3.org/2000/svg" width="30" height="30" viewBox="0 0 30 30">
  <g id="pricetags">
    <rect id="Rectangle_5104" data-name="Rectangle 5104" width="30" height="30" fill="#ff8801" opacity="0"/>
    <path id="Path_1342" data-name="Path 1342" d="M25.839,13.476,17.814,5.464a1.25,1.25,0,0,0-.763-.362L5.364,4A1.255,1.255,0,0,0,4,5.364L5.1,17.051a1.25,1.25,0,0,0,.362.762l8.013,8.025a2.3,2.3,0,0,0,1.612.663,2.275,2.275,0,0,0,1.6-.663l9.15-9.15a2.275,2.275,0,0,0,0-3.213Zm-12.388,0a33771.243,33771.243,0,1,0,0-.025Z" transform="translate(0.999 0.999)" fill="#ff8801"/>
  </g>
</svg>
