<svg xmlns="http://www.w3.org/2000/svg" width="118.892" height="45" viewBox="0 0 118.892 45">
  <g id="layer1" transform="translate(-371.147 59.528)">
    <g id="g38" transform="translate(371.147 -59.528)">
      <g id="g136">
        <path id="path138" d="M-46.687,0H-77.925a6.95,6.95,0,0,0-6.861,7.036V37.963A6.95,6.95,0,0,0-78.028,45h31.318a6.956,6.956,0,0,0,6.868-7.036l.015-30.928A6.95,6.95,0,0,0-46.687,0M-74.212,41.394l-1.7.021a3.759,3.759,0,0,1-3.731-3.788l-.013-.3V8.765l.013-1.539A3.688,3.688,0,0,1-76.02,3.573h3.462a5.863,5.863,0,0,1,5.687,5.948,5.888,5.888,0,0,1-1.638,4.093l-8.835,8.961,8.284,8.439a5.933,5.933,0,0,1,1.707,4.132c0,3.45-3.065,6.248-6.86,6.248m25.469-.026-15.447,0S-62.4,37.5-62.4,35.112a10.985,10.985,0,0,0-2.5-7.238l-5.281-5.387,5.385-5.566a10.039,10.039,0,0,0,2.676-7.241,10.75,10.75,0,0,0-1.747-6.108h3.745a5.865,5.865,0,0,1,5.687,5.948,5.9,5.9,0,0,1-1.632,4.093l-8.672,8.87,18,18.361a3.809,3.809,0,0,1-2.007.523m3.768-5.735-12.9-13.152,6.145-6.243a10.635,10.635,0,0,0,2.05-6.557A10.919,10.919,0,0,0-51.448,3.5l2.747.086a3.764,3.764,0,0,1,3.737,3.789Z" transform="translate(84.786 0)" fill="#00529c"/>
      </g>
      <g id="g140" transform="translate(49.392 3.552)">
        <path id="path142" d="M-28.5-20.63q.377-.377.89-.971a8.728,8.728,0,0,0,.971-1.4,9.744,9.744,0,0,0,.782-1.808,6.85,6.85,0,0,0,.325-2.131,11.159,11.159,0,0,0-.755-4.127,8.935,8.935,0,0,0-2.321-3.346,11.074,11.074,0,0,0-3.912-2.239A16.818,16.818,0,0,0-38-37.465h-13.76V.306h15.109A16.848,16.848,0,0,0-30.9-.585a11.321,11.321,0,0,0,4.074-2.455,9.837,9.837,0,0,0,2.4-3.642,12.535,12.535,0,0,0,.782-4.452A10.989,10.989,0,0,0-25.1-16.8a11.89,11.89,0,0,0-3.4-3.831m-6.681-9.914a3.722,3.722,0,0,1,1.265.763,3.954,3.954,0,0,1,1.289,2.955,5.51,5.51,0,0,1-.537,2.579,6.488,6.488,0,0,1-1.075,1.558h-10.5v-8.3h6.529a8.853,8.853,0,0,1,3.032.446m-1.09,14.393a5.52,5.52,0,0,1,4.228,1.476,4.991,4.991,0,0,1,1.3,3.433A4.717,4.717,0,0,1-32.222-7.75Q-33.7-6.3-37.085-6.3h-7.655v-9.853Z" transform="translate(51.756 37.465)" fill="#00529c"/>
      </g>
      <g id="g144" transform="translate(79.971 3.552)">
        <path id="path146" d="M-28.367-26.35a11.6,11.6,0,0,0,2.833-2.7,10.722,10.722,0,0,0,1.673-3.4,13.616,13.616,0,0,0,.54-3.8,12.685,12.685,0,0,0-.837-4.667,9.784,9.784,0,0,0-2.509-3.669,11.723,11.723,0,0,0-4.182-2.4,17.83,17.83,0,0,0-5.8-.864H-51.517v37.771h7.151V-24.11h3.987l9.861,14.029h8.382L-32.333-24.6a12.643,12.643,0,0,0,3.966-1.754M-36.6-41.377a10.185,10.185,0,0,1,1.278.08,5.837,5.837,0,0,1,3.119,1.37A4.7,4.7,0,0,1-30.56-36.3a6.439,6.439,0,0,1-.35,2.1,4.789,4.789,0,0,1-1.1,1.8,5.588,5.588,0,0,1-1.935,1.263,7.513,7.513,0,0,1-2.848.484h-7.572v-10.72Z" transform="translate(51.517 47.852)" fill="#00529c"/>
      </g>
      <g id="g148" transform="translate(111.601 3.552)">
        <path id="path150" d="M-.339,0V.011C-.411.009-.482,0-.554,0H-.615V37.771H6.676V0Z" transform="translate(0.615)" fill="#00529c"/>
      </g>
    </g>
  </g>
</svg>
