<svg id="Layer_2" data-name="Layer 2" xmlns="http://www.w3.org/2000/svg" width="30" height="30" viewBox="0 0 30 30">
  <g id="clipboard">
    <rect id="Rectangle_4979" data-name="Rectangle 4979" width="30" height="30" fill="#5433ff" opacity="0"/>
    <path id="Path_1282" data-name="Path 1282" d="M21.75,4V7.75a2.5,2.5,0,0,1-2.5,2.5h-10a2.5,2.5,0,0,1-2.5-2.5V4A3.75,3.75,0,0,0,3,7.75v15A3.75,3.75,0,0,0,6.75,26.5h15a3.75,3.75,0,0,0,3.75-3.75v-15A3.75,3.75,0,0,0,21.75,4Z" transform="translate(0.75 1)" fill="#5433ff"/>
    <rect id="Rectangle_4980" data-name="Rectangle 4980" width="12" height="7" rx="1" transform="translate(9 3)" fill="#5433ff"/>
  </g>
</svg>
