<svg id="alert-circle" xmlns="http://www.w3.org/2000/svg" width="24" height="24" viewBox="0 0 24 24">
  <rect id="Rectangle_4938" data-name="Rectangle 4938" width="24" height="24" fill="#0063f8" opacity="0"/>
  <path id="Path_1270" data-name="Path 1270" d="M12,2A10,10,0,1,0,22,12,10,10,0,0,0,12,2Zm0,18a8,8,0,1,1,8-8A8,8,0,0,1,12,20Z" fill="#0063f8"/>
  <circle id="Ellipse_641" data-name="Ellipse 641" cx="1" cy="1" r="1" transform="translate(11 15)" fill="#0063f8"/>
  <path id="Path_1271" data-name="Path 1271" d="M12,7a1,1,0,0,0-1,1v5a1,1,0,0,0,2,0V8A1,1,0,0,0,12,7Z" fill="#0063f8"/>
</svg>
