<svg xmlns="http://www.w3.org/2000/svg" width="72" height="72" viewBox="0 0 72 72">
  <g id="Group_8988" data-name="Group 8988" transform="translate(8415 -32)">
    <circle id="Ellipse_750" data-name="Ellipse 750" cx="36" cy="36" r="36" transform="translate(-8415 32)" fill="#ff8801" opacity="0.1"/>
    <path id="Path_1705" data-name="Path 1705" d="M22.8,39.3a3.312,3.312,0,1,1-3.315,3.312A3.313,3.313,0,0,1,22.8,39.3Zm-4.67-3.749V30.055H22.3a8.98,8.98,0,0,0,9.118-9.319A8.98,8.98,0,0,0,22.3,11.416c-5.36,0-9.049,4.034-9.049,9.319H7.336A14.689,14.689,0,0,1,22.3,5.922a14.815,14.815,0,1,1,0,29.627Z" transform="translate(-8401.336 42.078)" fill="#ff8801" fill-rule="evenodd"/>
  </g>
</svg>
