<svg xmlns="http://www.w3.org/2000/svg" xmlns:xlink="http://www.w3.org/1999/xlink" width="392" height="120" viewBox="0 0 392 120">
  <defs>
    <filter id="Rectangle_3414" x="0" y="0" width="392" height="120" filterUnits="userSpaceOnUse">
      <feOffset dy="8" input="SourceAlpha"/>
      <feGaussianBlur stdDeviation="12" result="blur"/>
      <feFlood flood-color="#0063f8" flood-opacity="0.2"/>
      <feComposite operator="in" in2="blur"/>
      <feComposite in="SourceGraphic"/>
    </filter>
  </defs>
  <g id="Group_8608" data-name="Group 8608" transform="translate(16 -403)">
    <g transform="matrix(1, 0, 0, 1, -16, 403)" filter="url(#Rectangle_3414)">
      <rect id="Rectangle_3414-2" data-name="Rectangle 3414" width="320" height="48" rx="10" transform="translate(36 28)" fill="#fff"/>
    </g>
    <g id="Group_8606" data-name="Group 8606">
      <text id="Lanjutkan_dengan_Google" data-name="Lanjutkan dengan Google" transform="translate(100.99 460)" fill="#0063f8" font-size="14" font-family="Montserrat-SemiBold, Montserrat" font-weight="600" letter-spacing="0.02em"><tspan x="0" y="0">Lanjutkan dengan Google</tspan></text>
      <g id="Group_8599" data-name="Group 8599" transform="translate(91.754 403.761)">
        <path id="Path_1361" data-name="Path 1361" d="M-3.264,51.509a13.9,13.9,0,0,0-.19-2.27h-11.3v4.51h6.47a5.571,5.571,0,0,1-2.4,3.58v3h3.86A11.733,11.733,0,0,0-3.264,51.509Z" fill="#4285f4"/>
        <path id="Path_1362" data-name="Path 1362" d="M-14.754,63.239a11.431,11.431,0,0,0,7.93-2.91l-3.86-3a7.239,7.239,0,0,1-4.07,1.16,7.167,7.167,0,0,1-6.73-4.96h-3.98v3.09A11.982,11.982,0,0,0-14.754,63.239Z" fill="#34a853"/>
        <path id="Path_1363" data-name="Path 1363" d="M-21.484,53.529a6.963,6.963,0,0,1-.38-2.29,7.234,7.234,0,0,1,.38-2.29v-3.09h-3.98a11.861,11.861,0,0,0-1.29,5.38,11.861,11.861,0,0,0,1.29,5.38Z" fill="#fbbc05"/>
        <path id="Path_1364" data-name="Path 1364" d="M-14.754,43.989a6.511,6.511,0,0,1,4.6,1.8l3.42-3.42a11.473,11.473,0,0,0-8.02-3.13,11.982,11.982,0,0,0-10.71,6.62l3.98,3.09A7.167,7.167,0,0,1-14.754,43.989Z" fill="#ea4335"/>
      </g>
    </g>
  </g>
</svg>
