<svg xmlns="http://www.w3.org/2000/svg" width="30" height="30" viewBox="0 0 30 30">
  <g id="Layer_2" data-name="Layer 2" transform="translate(0.002 -0.001)">
    <g id="droplet" transform="translate(-0.002 0.001)">
      <rect id="Rectangle_5477" data-name="Rectangle 5477" width="29.752" height="29.752" transform="translate(0.249 0) rotate(0.48)" fill="#05c270" opacity="0"/>
      <path id="Path_1760" data-name="Path 1760" d="M13.777,25.414a9.174,9.174,0,0,1-6.545-2.826A9.583,9.583,0,0,1,7.356,9.236l5.752-5.764a1.165,1.165,0,0,1,.88-.372,1.24,1.24,0,0,1,.88.384l5.653,5.851a9.583,9.583,0,0,1-.112,13.351,9.087,9.087,0,0,1-6.632,2.727Z" transform="translate(1.101 0.742)" fill="#05c270"/>
    </g>
  </g>
</svg>
