<svg id="Layer_2" data-name="Layer 2" xmlns="http://www.w3.org/2000/svg" width="30" height="30" viewBox="0 0 30 30">
  <g id="pie-chart-2">
    <rect id="Rectangle_5103" data-name="Rectangle 5103" width="30" height="30" fill="#00cfdd" opacity="0"/>
    <path id="Path_1340" data-name="Path 1340" d="M14.708,12.413h8.337a1.038,1.038,0,0,0,1.038-1.038A9.375,9.375,0,0,0,14.707,2,1.037,1.037,0,0,0,13.67,3.038v8.337a1.038,1.038,0,0,0,1.038,1.038Zm1.038-8.25a7.288,7.288,0,0,1,6.175,6.175H15.745Z" transform="translate(3.417 0.5)" fill="#00cfdd"/>
    <path id="Path_1341" data-name="Path 1341" d="M25.836,14.5H15.649a1.138,1.138,0,0,1-1.137-1.138V3.151A1.15,1.15,0,0,0,13.236,2a12.5,12.5,0,1,0,13.75,13.75,1.15,1.15,0,0,0-1.15-1.25Z" transform="translate(0.514 0.499)" fill="#00cfdd"/>
  </g>
</svg>
