<svg xmlns="http://www.w3.org/2000/svg" xmlns:xlink="http://www.w3.org/1999/xlink" width="156.866" height="45" viewBox="0 0 156.866 45">
  <defs>
    <linearGradient id="linear-gradient" x1="0.063" y1="1.362" x2="0.937" y2="-0.348" gradientUnits="objectBoundingBox">
      <stop offset="0" stop-color="#f6ad02"/>
      <stop offset="0.2" stop-color="#fff000"/>
      <stop offset="0.412" stop-color="#f6ad02"/>
      <stop offset="0.659" stop-color="#fff000"/>
      <stop offset="0.788" stop-color="#f6ad02"/>
      <stop offset="1" stop-color="#fff000"/>
    </linearGradient>
  </defs>
  <g id="Layer_x0020_1" transform="translate(0 0)">
    <path id="Path_1677" data-name="Path 1677" d="M116.4,101.423h5.469v18.805H116.4Zm-13.46,18.805V107.261c0-1.063-.019-2.08-.056-3.06s-.086-1.9-.161-2.777h5.013l.2,3.364a5.21,5.21,0,0,1,2.279-2.622,7.745,7.745,0,0,1,3.883-.886h.163l-.019,4.938-.737-.056c-.169-.013-.319-.019-.45-.019a4.977,4.977,0,0,0-3.353,1.044,3.6,3.6,0,0,0-1.216,2.89v10.152h-5.546Zm-8.269-18.805h5.469v18.805H94.667ZM85.8,120.228l-.18-2.686a6.832,6.832,0,0,1-2.435,2.286,6.681,6.681,0,0,1-3.222.768,6.768,6.768,0,0,1-5.551-2.68,11.08,11.08,0,0,1-2.129-7.086,11.177,11.177,0,0,1,2.086-7.094,6.683,6.683,0,0,1,5.525-2.659,6.953,6.953,0,0,1,3.254.725,6.52,6.52,0,0,1,2.4,2.2V93.25H90.98v23.194c0,.948.013,1.722.043,2.311s.082,1.085.139,1.473H85.8Zm-7.973-9.365a8.5,8.5,0,0,0,1.006,4.513,3.148,3.148,0,0,0,2.815,1.6,3.343,3.343,0,0,0,2.929-1.636,9.86,9.86,0,0,0,0-8.972,3.342,3.342,0,0,0-2.929-1.647,3.14,3.14,0,0,0-2.815,1.617A8.6,8.6,0,0,0,77.831,110.863Zm-25.846,9.365v-15.2c0-.536-.011-1.1-.043-1.685s-.081-1.229-.137-1.923h5.206l.112,2.821a6.839,6.839,0,0,1,2.517-2.491,7.377,7.377,0,0,1,3.557-.787,5.728,5.728,0,0,1,4.614,1.767q1.507,1.76,1.511,5.388v12.107H63.948V108.871a4.925,4.925,0,0,0-.725-3.021,2.81,2.81,0,0,0-2.346-.913,3.314,3.314,0,0,0-2.536,1.018,3.747,3.747,0,0,0-.961,2.7v11.577H51.985Zm-51.841,0v-15.2c0-.675-.013-1.3-.037-1.9S.043,101.972,0,101.423H5.176l.142,2.821a6.811,6.811,0,0,1,2.517-2.491,7.369,7.369,0,0,1,3.552-.787,6.48,6.48,0,0,1,3.591.945,5.422,5.422,0,0,1,2.135,2.734,6.366,6.366,0,0,1,2.4-2.792,7.193,7.193,0,0,1,3.752-.886,5.765,5.765,0,0,1,4.627,1.767q1.518,1.76,1.516,5.388v12.107H23.974V108.871a4.939,4.939,0,0,0-.723-3.021,2.816,2.816,0,0,0-2.348-.913,3.252,3.252,0,0,0-2.515,1.018,3.785,3.785,0,0,0-.943,2.7v11.577H12.011V108.871a4.991,4.991,0,0,0-.71-3.01A2.723,2.723,0,0,0,9,104.937a3.234,3.234,0,0,0-2.5,1.006,3.838,3.838,0,0,0-.924,2.708v11.577H.144ZM44.1,118.264a12.777,12.777,0,0,1-4.713,2.315,8.163,8.163,0,0,1-1.848.195,5.281,5.281,0,0,1-3.968-1.666,5.907,5.907,0,0,1-1.595-4.256,6.327,6.327,0,0,1,.813-3.383A5.64,5.64,0,0,1,35.1,109.4a11.944,11.944,0,0,1,3.67-1.076c1.46-.212,2.974-.373,4.539-.47v-.1c0-4.5-6.413-3.938-9.157-2.015l-.948-3.544a15.4,15.4,0,0,1,6.874-1.516c4.6,0,8.481,2.2,8.481,7.472v12.124H44.1Zm-.431-3.67v-3.626c-.828.081-1.732.187-2.7.32a11.965,11.965,0,0,0-2.206.478,2.977,2.977,0,0,0-1.406.961,2.655,2.655,0,0,0-.489,1.666C36.87,119.156,42.431,117.61,43.671,114.595Z" transform="translate(0 -75.774)" fill="#0061ae"/>
    <path id="Path_1678" data-name="Path 1678" d="M323.91,13.67c1.677,1.874,4.8,6.959,8.5,6.644,8.66-.735,13.591-10.1,24.283-9.431,4.391.274,6.46,7.641,10.816,8.276,6.863,1,13.441-9.556,24.628-8.951,4.6.249,6.5,7.978,11.086,8.424,4.275.416,10.969-5.643,16.852-8.784-1.5-2.524-4.282-6.464-7.245-6.663-5.834-.394-10.5,7.06-15.632,5.759C394.207,8.188,390.8-.017,385.884,0c-9.107.03-15.391,9.047-23.444,9.759-4.567.4-6.766-9.757-12.883-8.823-8.374,1.278-16.931,8.179-25.648,12.735Z" transform="translate(-263.205 0)" fill-rule="evenodd" fill="url(#linear-gradient)"/>
  </g>
</svg>
