<svg id="Layer_2" data-name="Layer 2" xmlns="http://www.w3.org/2000/svg" width="30" height="30" viewBox="0 0 30 30">
  <g id="edit">
    <rect id="Rectangle_4983" data-name="Rectangle 4983" width="30" height="30" fill="#6500cd" opacity="0"/>
    <path id="Path_1287" data-name="Path 1287" d="M23.251,8.161,19.826,4.736A2.5,2.5,0,0,0,16.5,4.648L5.251,15.9a2.5,2.5,0,0,0-.712,1.513L4,22.623a1.247,1.247,0,0,0,1.25,1.362h.113l5.213-.475a2.5,2.5,0,0,0,1.512-.712l11.25-11.25a2.4,2.4,0,0,0-.088-3.388ZM19,12.336l-3.35-3.35,2.437-2.5L21.5,9.9Z" transform="translate(0.999 1.014)" fill="#6500cd"/>
  </g>
</svg>
