<svg id="Layer_2" data-name="Layer 2" xmlns="http://www.w3.org/2000/svg" width="30" height="30" viewBox="0 0 30 30">
  <g id="people">
    <rect id="Rectangle_4982" data-name="Rectangle 4982" width="30" height="30" fill="#65c544" opacity="0"/>
    <path id="Path_1284" data-name="Path 1284" d="M10,13A5,5,0,1,0,5,8,5,5,0,0,0,10,13Z" transform="translate(1.25 0.75)" fill="#65c544"/>
    <path id="Path_1285" data-name="Path 1285" d="M17.75,14.5A3.75,3.75,0,1,0,14,10.75,3.75,3.75,0,0,0,17.75,14.5Z" transform="translate(3.5 1.75)" fill="#65c544"/>
    <path id="Path_1286" data-name="Path 1286" d="M25.75,21.748A1.25,1.25,0,0,0,27,20.5,6.25,6.25,0,0,0,16.925,15.56,8.75,8.75,0,0,0,2,21.748,1.25,1.25,0,0,0,3.25,23h15a1.25,1.25,0,0,0,1.25-1.25" transform="translate(0.5 3.252)" fill="#65c544"/>
  </g>
</svg>
