<svg xmlns="http://www.w3.org/2000/svg" width="28" height="25" viewBox="0 0 28 25">
  <g id="Group_8694" data-name="Group 8694" transform="translate(14711 1817)">
    <path id="Subtraction_1" data-name="Subtraction 1" d="M24,20H4a4,4,0,0,1-4-4V4A4,4,0,0,1,4,0H24a4,4,0,0,1,4,4V16A4,4,0,0,1,24,20ZM14,4a6,6,0,1,0,6,6A6.007,6.007,0,0,0,14,4Z" transform="translate(-14711 -1812)" fill="#fff"/>
    <g id="Group_8693" data-name="Group 8693" opacity="0.3">
      <rect id="Rectangle_5183" data-name="Rectangle 5183" width="8" height="3" rx="1.5" transform="translate(-14701 -1817)" fill="#fff"/>
      <circle id="Ellipse_763" data-name="Ellipse 763" cx="3" cy="3" r="3" transform="translate(-14700 -1805)" fill="#fff"/>
    </g>
  </g>
</svg>
