<svg xmlns="http://www.w3.org/2000/svg" width="24" height="24" viewBox="0 0 24 24">
  <g id="Layer_2" data-name="Layer 2" opacity="0.8">
    <g id="person">
      <rect id="Rectangle_3471" data-name="Rectangle 3471" width="24" height="24" fill="#0063f8" opacity="0"/>
      <path id="Path_1228" data-name="Path 1228" d="M12,11A4,4,0,1,0,8,7,4,4,0,0,0,12,11Zm0-6a2,2,0,1,1-2,2A2,2,0,0,1,12,5Z" fill="#0063f8"/>
      <path id="Path_1229" data-name="Path 1229" d="M12,13a7,7,0,0,0-7,7,1,1,0,0,0,2,0,5,5,0,0,1,10,0,1,1,0,0,0,2,0,7,7,0,0,0-7-7Z" fill="#0063f8"/>
    </g>
  </g>
</svg>
