<svg xmlns="http://www.w3.org/2000/svg" width="48" height="48" viewBox="0 0 48 48">
  <g id="Group_8553" data-name="Group 8553" transform="translate(-20 -88)">
    <rect id="Rectangle_4900" data-name="Rectangle 4900" width="48" height="48" rx="10" transform="translate(20 88)" fill="#fff" opacity="0.1"/>
    <g id="Layer_2" data-name="Layer 2" transform="translate(32 100)">
      <g id="grid">
        <rect id="Rectangle_5079" data-name="Rectangle 5079" width="24" height="24" fill="#fff" opacity="0"/>
        <path id="Path_1322" data-name="Path 1322" d="M9,3H5A2,2,0,0,0,3,5V9a2,2,0,0,0,2,2H9a2,2,0,0,0,2-2V5A2,2,0,0,0,9,3ZM5,9V5H9V9Z" fill="#fff"/>
        <path id="Path_1323" data-name="Path 1323" d="M19,3H15a2,2,0,0,0-2,2V9a2,2,0,0,0,2,2h4a2,2,0,0,0,2-2V5A2,2,0,0,0,19,3ZM15,9V5h4V9Z" fill="#fff"/>
        <path id="Path_1324" data-name="Path 1324" d="M9,13H5a2,2,0,0,0-2,2v4a2,2,0,0,0,2,2H9a2,2,0,0,0,2-2V15A2,2,0,0,0,9,13ZM5,19V15H9v4Z" fill="#fff"/>
        <path id="Path_1325" data-name="Path 1325" d="M19,13H15a2,2,0,0,0-2,2v4a2,2,0,0,0,2,2h4a2,2,0,0,0,2-2V15A2,2,0,0,0,19,13Zm-4,6V15h4v4Z" fill="#fff"/>
      </g>
    </g>
  </g>
</svg>
