<svg id="Layer_2" data-name="Layer 2" xmlns="http://www.w3.org/2000/svg" width="24" height="24" viewBox="0 0 24 24">
  <g id="layers">
    <rect id="Rectangle_4894" data-name="Rectangle 4894" width="24" height="24" transform="translate(24 24) rotate(180)" fill="#fff" opacity="0"/>
    <path id="Path_1250" data-name="Path 1250" d="M21,11.35a1,1,0,0,0-.61-.86l-2.15-.92,2.26-1.3a.993.993,0,0,0-.11-1.78l-8-3.41a1,1,0,0,0-.78,0l-8,3.41A.993.993,0,0,0,3.5,8.27l2.26,1.3-2.15.92a.993.993,0,0,0-.11,1.78l2.26,1.3-2.15.92a.993.993,0,0,0-.11,1.78l8,4.6a1,1,0,0,0,1,0l8-4.6a.993.993,0,0,0-.11-1.78l-2.15-.92,2.26-1.3A1,1,0,0,0,21,11.35ZM12,5.09l5.76,2.45L12,10.85,6.24,7.54Zm-.5,7.78a1,1,0,0,0,1,0l3.57-2,1.69.72L12,14.85,6.24,11.54l1.69-.72Zm6.26,2.67L12,18.85,6.24,15.54l1.69-.72,3.57,2.05a1,1,0,0,0,1,0l3.57-2.05Z" fill="#fff"/>
  </g>
</svg>
