<svg id="transaksi" xmlns="http://www.w3.org/2000/svg" width="30" height="30" viewBox="0 0 30 30">
  <g id="file-text">
    <rect id="Rectangle_5315" data-name="Rectangle 5315" width="30" height="30" fill="#ff3b3b" opacity="0"/>
    <path id="Path_1719" data-name="Path 1719" d="M23.675,8.663l-5.55-6.25A1.25,1.25,0,0,0,17.2,2H7.2A3.162,3.162,0,0,0,4,5.125v18.75A3.162,3.162,0,0,0,7.2,27H20.8A3.162,3.162,0,0,0,24,23.875V9.5a1.25,1.25,0,0,0-.325-.837ZM10.25,14.5H14A1.25,1.25,0,1,1,14,17H10.25a1.25,1.25,0,1,1,0-2.5Zm7.5,7.5h-7.5a1.25,1.25,0,1,1,0-2.5h7.5a1.25,1.25,0,0,1,0,2.5ZM17.388,9.5A.987.987,0,0,1,16.5,8.438V4.5l4.675,5Z" transform="translate(1 0.5)" fill="#ff3b3b"/>
  </g>
</svg>
