<svg xmlns="http://www.w3.org/2000/svg" xmlns:xlink="http://www.w3.org/1999/xlink" width="255.945" height="180.001" viewBox="0 0 255.945 180.001">
  <defs>
    <linearGradient id="linear-gradient" x1="0.975" y1="0.036" x2="0.78" y2="0.732" gradientUnits="objectBoundingBox">
      <stop offset="0" stop-color="#fc0"/>
      <stop offset="1" stop-color="#ff8801"/>
    </linearGradient>
    <clipPath id="clip-path">
      <path id="Path_1005" data-name="Path 1005" d="M29.151,593.231c1-2.26,5.33-3.2,12.069-2.667C59.246,592,70.547,602.956,78.831,577.412s46.224-62.9,65.486-34.993c11.054,16.012-12.744,30.99-11.271,49.7,1.4,17.777-9.79,27.444-29.106,30-12.492,1.649-10.679,4.834-12.444,5.387C65.335,635.687,25.536,601.373,29.151,593.231Z" transform="translate(-28.921 -532.523)" fill="none"/>
    </clipPath>
    <linearGradient id="linear-gradient-2" x1="0.197" y1="0.046" x2="0.5" y2="0.44" gradientUnits="objectBoundingBox">
      <stop offset="0" stop-color="#8dc31e"/>
      <stop offset="1" stop-color="#05c270"/>
    </linearGradient>
    <clipPath id="clip-path-2">
      <path id="Path_1014" data-name="Path 1014" d="M478.143,147.077c.287-6.28,3.825-10.933,3.839-17.329.059-25.59-20.526-76.351-49.719-56.541-16.761,11.371.547,35.947-6.024,54.305-6.248,17.446,3.813,30.6,21.025,38.956,9.271,4.5,7.693,8.419,10.405,9.031C469.071,178.072,477.415,163.023,478.143,147.077Z" transform="translate(-424.374 -68.725)" fill="none"/>
    </clipPath>
    <linearGradient id="linear-gradient-3" y1="0.05" x2="1" y2="0.045" gradientUnits="objectBoundingBox">
      <stop offset="0" stop-color="#5433ff"/>
      <stop offset="1" stop-color="#0063f8"/>
    </linearGradient>
    <linearGradient id="linear-gradient-4" x1="-257.456" y1="-415.922" x2="-226.006" y2="-70.269" gradientUnits="objectBoundingBox">
      <stop offset="0" stop-color="#aa80f9"/>
      <stop offset="1" stop-color="#6165d7"/>
    </linearGradient>
    <linearGradient id="linear-gradient-5" x1="0.035" y1="0.048" x2="0.765" y2="0.894" gradientUnits="objectBoundingBox">
      <stop offset="0" stop-color="#e42236"/>
      <stop offset="1" stop-color="#d22638"/>
    </linearGradient>
    <linearGradient id="linear-gradient-6" x1="0.73" y1="0.758" x2="-0.115" y2="-0.571" gradientUnits="objectBoundingBox">
      <stop offset="0" stop-color="#f8374b"/>
      <stop offset="1" stop-color="#f64e60"/>
    </linearGradient>
    <linearGradient id="linear-gradient-7" y1="0.063" x2="0.798" y2="0.872" gradientUnits="objectBoundingBox">
      <stop offset="0" stop-color="#e52236"/>
      <stop offset="1" stop-color="#d22638"/>
    </linearGradient>
    <linearGradient id="linear-gradient-8" x1="1.399" y1="-1.199" x2="0.115" y2="1.058" gradientUnits="objectBoundingBox">
      <stop offset="0" stop-color="#f83749"/>
      <stop offset="1" stop-color="#f64e60"/>
    </linearGradient>
  </defs>
  <g id="Group_8690" data-name="Group 8690" transform="translate(13915 8047)">
    <g id="Group_8689" data-name="Group 8689" transform="translate(-13784.945 -7979.498)">
      <path id="Path_1000" data-name="Path 1000" d="M97.353,631.18a310.528,310.528,0,0,1-34.618-8.27c-5.492-1.574-10.987-3.074-16.528-4.46A142.448,142.448,0,0,1,30.751,613.9q-.922-.363-1.83-.753c2.845-10.37,2.134-23.99,19.854-22.581C66.8,592,78.1,602.956,86.386,577.412s46.224-62.9,65.486-34.993c11.054,16.012-12.744,30.99-11.271,49.7,1.4,17.777-9.79,27.444-29.106,30C102.017,623.366,98.553,626.467,97.353,631.18Z" transform="translate(-28.92 -532.522)" fill="url(#linear-gradient)"/>
      <g id="Group_7839" data-name="Group 7839" transform="translate(7.555)">
        <g id="Group_7838" data-name="Group 7838" transform="translate(0 0)" clip-path="url(#clip-path)">
          <path id="Path_1001" data-name="Path 1001" d="M132.772,603.079a161.6,161.6,0,0,1-24.295,16.069l-.4-.111c34.822-18.591,63.148-50.536,80.3-92.237l.378.155C176.177,557.543,156.817,583.866,132.772,603.079Z" transform="translate(-76.95 -527.272)" fill="#fcfdfe"/>
          <path id="Path_1002" data-name="Path 1002" d="M1363.68,1228.571a110.766,110.766,0,0,0,5.67-28.941l.407.031a111.27,111.27,0,0,1-5.683,29.023Z" transform="translate(-1361.476 -1144.625)" fill="#fcfdfe"/>
          <path id="Path_1003" data-name="Path 1003" d="M180.34,1370.288l-.16-.376c16.265-6.932,34.479-3.2,46.9,1.144l-.135.385C214.593,1367.118,196.485,1363.407,180.34,1370.288Z" transform="translate(-121.212 -1297.341)" fill="#fcfdfe"/>
          <path id="Path_1004" data-name="Path 1004" d="M344.674,512.5l-.367-.18c8.756-17.892,4.692-38.4,1.489-49.031l.391-.118C349.407,473.86,353.492,494.488,344.674,512.5Z" transform="translate(-257.663 -468.888)" fill="#fcfdfe"/>
        </g>
      </g>
    </g>
    <path id="Path_1008" data-name="Path 1008" d="M486.909,151.078c-.284-1.644-4.947-4.508-4.917-16.459.059-25.59-20.526-76.351-49.719-56.541-16.757,11.371.552,35.949-6.023,54.3a27.54,27.54,0,0,0-1.34,15.171c2.2,10.389,11.182,14.954,22.362,23.783,21.49,16.971,22.09,29.507,28.687,28.211C485.373,197.7,490.536,172.056,486.909,151.078Z" transform="translate(-14339.386 -8120.595)" fill="url(#linear-gradient-2)"/>
    <g id="Group_7840" data-name="Group 7840" transform="translate(-13915 -8047)" clip-path="url(#clip-path-2)">
      <path id="Path_1010" data-name="Path 1010" d="M787.016,1565.491c15.191-7.971,46.861-15.887,63.835-16.4.008-.144.015-.288.024-.431-16.976.513-48.869,8.493-64.065,16.468Z" transform="translate(-756.926 -1426.636)" fill="#fcfdfe"/>
      <path id="Path_1011" data-name="Path 1011" d="M1591.446,1041.9c.016-.291.087-.412.172-.365-9.564-6.209-13.993-13.924-17.86-25.248-2.836-8.3-4.023-20.626-3.227-30.006-.207-.2-.323-.209-.42,0-.723,9.419.33,21.786,3.241,30.124C1577.339,1027.835,1581.726,1035.636,1591.446,1041.9Z" transform="translate(-1475.44 -910.489)" fill="#fcfdfe"/>
      <path id="Path_1012" data-name="Path 1012" d="M427.149,955.168c.082-.111.158-.223.237-.33-12.833-10.5-28.941-13.926-45.207-13.265.011.143.025.285.036.429C398.376,941.341,414.4,944.735,427.149,955.168Z" transform="translate(-385.659 -869.533)" fill="#fcfdfe"/>
      <path id="Path_1013" data-name="Path 1013" d="M701.661,104.161l.4-.059c-1.661-17.209,4.9-34.028,14.737-47.9l-.334-.242C706.57,69.908,699.971,86.855,701.661,104.161Z" transform="translate(-678.556 -57.012)" fill="#fcfdfe"/>
      <path id="Path_1686" data-name="Path 1686" d="M11.709-1.053S15.629,29.076,26.4,55.385s28.4,48.8,28.4,48.8" fill="none" stroke="#fff" stroke-linecap="round" stroke-width="0.5"/>
    </g>
    <rect id="Rectangle_5177" data-name="Rectangle 5177" width="186" height="140" rx="12" transform="translate(-13885.055 -8007)" fill="#fff"/>
    <path id="Intersection_24" data-name="Intersection 24" d="M28.1,145.773a12,12,0,0,1-12-12v-116a12,12,0,0,1,12-12H41.29a55.485,55.485,0,0,0,5.779,8.981c21.044,26.66,54.309,18.984,73.528,43.111,11.595,14.558,7.03,20.908,14.5,44.41,6.747,21.221,29.492,36.333,39.257,43.5Z" transform="translate(-13901.15 -8012.772)" fill="#0063f8" opacity="0.1"/>
    <path id="Union_19" data-name="Union 19" d="M12,140A12,12,0,0,1,0,128V12A12,12,0,0,1,12,0H174a12,12,0,0,1,12,12V128a12,12,0,0,1-12,12ZM3,128a9.01,9.01,0,0,0,9,9H174a9.01,9.01,0,0,0,9-9V17H3Z" transform="translate(-13885.055 -8007)" fill="url(#linear-gradient-3)"/>
    <circle id="Ellipse_758" data-name="Ellipse 758" cx="2.5" cy="2.5" r="2.5" transform="translate(-13869.055 -8001)" fill="#fff"/>
    <circle id="Ellipse_759" data-name="Ellipse 759" cx="2.5" cy="2.5" r="2.5" transform="translate(-13859.055 -8001)" fill="#fff"/>
    <circle id="Ellipse_760" data-name="Ellipse 760" cx="2.5" cy="2.5" r="2.5" transform="translate(-13849.055 -8001)" fill="#fff"/>
    <g id="Group_8687" data-name="Group 8687" transform="translate(135.439 10)">
      <path id="Path_1007" data-name="Path 1007" d="M1064.16,1574.86l.191.115.6.356C1065.731,1575.789,1066.767,1576.36,1064.16,1574.86Z" transform="translate(-15013.691 -9498.414)" fill="url(#linear-gradient-4)"/>
      <path id="Path_1022" data-name="Path 1022" d="M914.313,903.184a9.706,9.706,0,0,1-5.277-1.365,101.969,101.969,0,0,1-18.342-13.9c-8.127-7.923-12.8-15.977-13.819-23.885l-.016-.125-.2-33.744c0-6.669,4.35-12.083,12.517-15.64,6.747-2.939,15.69-4.395,25.137-4.123,9.338.27,17.975,2.2,24.374,5.407,7.6,3.817,11.591,9.179,11.591,15.538l-.181,32.239-.015.119c-.934,7.572-5.23,15.4-12.824,23.317a105.974,105.974,0,0,1-17.7,14.5A10.052,10.052,0,0,1,914.313,903.184Z" transform="translate(-14841.651 -8796.956)" fill="#f83749" opacity="0"/>
      <path id="Path_1023" data-name="Path 1023" d="M942.307,903.184a9.482,9.482,0,0,1-5.209-1.365,100.733,100.733,0,0,1-18.1-13.9c-8.02-7.923-12.628-15.977-13.636-23.885l-.016-.125-.2-33.744c0-6.669,4.292-12.083,12.351-15.64,6.658-2.939,15.483-4.395,24.806-4.123,9.214.27,17.74,2.2,24.051,5.407,7.5,3.817,11.438,9.179,11.438,15.538l-.178,32.239-.015.119c-.921,7.572-5.161,15.4-12.654,23.317a104.847,104.847,0,0,1-17.467,14.5,9.824,9.824,0,0,1-5.175,1.666Z" transform="translate(-14867.793 -8796.956)" fill="url(#linear-gradient-5)"/>
      <path id="Path_1024" data-name="Path 1024" d="M932.17,853.264l.2,33.574c2.21,17.13,22.344,31,31.111,36.269a7.741,7.741,0,0,0,8.217-.221c8.585-5.65,27.614-19.871,29.647-36.342l.181-32.156C1001.523,830.534,932.17,828.353,932.17,853.264Z" transform="translate(-14892.584 -8820.033)" fill="url(#linear-gradient-6)"/>
      <path id="Path_1025" data-name="Path 1025" d="M1041.624,987.727a1.2,1.2,0,0,1-.646-.165,95.34,95.34,0,0,1-16.7-12.746c-6.576-6.459-10.369-12.74-11.239-18.639l-.193-33.018c.008-3.168,2.516-5.88,7.431-8.049,5.488-2.422,13.281-3.693,21.347-3.5,7.986.19,15.551,1.8,20.793,4.4,4.637,2.3,6.981,5.012,6.989,8.071l-.18,31.875c-.812,5.707-4.37,11.862-10.622,18.33a99.164,99.164,0,0,1-16.325,13.248,1.238,1.238,0,0,1-.658.2Z" transform="translate(-14966.612 -8889.831)" fill="#e52236" opacity="0"/>
      <path id="Path_1026" data-name="Path 1026" d="M1056.114,1008.679a92.543,92.543,0,0,1-15.786-12.148c-6.184-6.082-9.756-11.919-10.6-17.315l-.191-32.827c.006-2.265,2.088-4.343,6.172-6.151,5.195-2.3,12.648-3.515,20.4-3.341,7.68.172,14.924,1.689,19.895,4.151,3.866,1.913,5.821,4,5.827,6.208l-.18,31.758c-.789,5.24-4.162,10.97-10.059,17.068A96.532,96.532,0,0,1,1056.114,1008.679Z" transform="translate(-14981.926 -8913.037)" fill="url(#linear-gradient-7)"/>
      <path id="Path_1027" data-name="Path 1027" d="M1198.736,1286.419l-24.551.219a3.379,3.379,0,0,0-3.425,3.285v15.73a3.17,3.17,0,0,0,3.412,3.094l24.465-1a3.294,3.294,0,0,0,3.16-3.216l.078-15.027A3.079,3.079,0,0,0,1198.736,1286.419Z" transform="translate(-15111.502 -9233.755)" fill="#fff"/>
      <path id="Path_1028" data-name="Path 1028" d="M1331.247,1362.41a3.039,3.039,0,0,0-3.306-3,3.245,3.245,0,0,0-3.039,2.968,2.954,2.954,0,0,0,1.583,2.794,1.1,1.1,0,0,1,.55,1.17l-.71,3.974a.8.8,0,0,0,.839.933l1.8-.063a.866.866,0,0,0,.839-.99l-.687-3.936a1.17,1.17,0,0,1,.585-1.191A3.133,3.133,0,0,0,1331.247,1362.41Z" transform="translate(-15252.931 -9300.728)" fill="url(#linear-gradient-8)"/>
      <path id="Path_1029" data-name="Path 1029" d="M1224.808,1113.642a1.31,1.31,0,0,1-1.331-1.308l.015-3.427a6.367,6.367,0,0,0-6.376-6.308l-8.014-.082a6.514,6.514,0,0,0-6.69,6.375v3.535a1.407,1.407,0,0,1-1.429,1.369,1.39,1.39,0,0,1-1.433-1.356v-3.545a9.266,9.266,0,0,1,9.56-9.076l8.017.112a9.06,9.06,0,0,1,9.037,8.979l-.017,3.414A1.34,1.34,0,0,1,1224.808,1113.642Z" transform="translate(-15137.918 -9062.541)" fill="#fff"/>
    </g>
  </g>
</svg>
