<svg xmlns="http://www.w3.org/2000/svg" xmlns:xlink="http://www.w3.org/1999/xlink" width="280.249" height="175.681" viewBox="0 0 280.249 175.681">
  <defs>
    <linearGradient id="linear-gradient" y1="1" x2="1" gradientUnits="objectBoundingBox">
      <stop offset="0" stop-color="#ff8801"/>
      <stop offset="1" stop-color="#fc0"/>
    </linearGradient>
    <linearGradient id="linear-gradient-3" y1="1" x2="1" gradientUnits="objectBoundingBox">
      <stop offset="0" stop-color="#5433ff"/>
      <stop offset="1" stop-color="#0063f8"/>
    </linearGradient>
    <linearGradient id="linear-gradient-5" x1="0.742" y1="0.5" x2="-0.27" y2="1.226" gradientUnits="objectBoundingBox">
      <stop offset="0" stop-color="#fc0"/>
      <stop offset="1" stop-color="#ff8801"/>
    </linearGradient>
  </defs>
  <g id="Group_8712" data-name="Group 8712" transform="translate(-40 -209)">
    <rect id="Rectangle_1047" data-name="Rectangle 1047" width="12.843" height="159.389" transform="translate(61.314 223.316)" fill="#fee"/>
    <rect id="Rectangle_1048" data-name="Rectangle 1048" width="12.843" height="159.389" transform="translate(287.557 223.316)" fill="#fee"/>
    <rect id="Rectangle_1049" data-name="Rectangle 1049" width="31.45" height="7.245" rx="3.622" transform="translate(52.094 377.436)" fill="url(#linear-gradient)"/>
    <rect id="Rectangle_1050" data-name="Rectangle 1050" width="31.45" height="7.245" rx="3.622" transform="translate(278.336 377.436)" fill="url(#linear-gradient)"/>
    <g id="Group_1920" data-name="Group 1920" transform="translate(40 279.435)">
      <rect id="Rectangle_1051" data-name="Rectangle 1051" width="280.249" height="34.908" rx="5" transform="translate(0 0)" fill="url(#linear-gradient-3)"/>
      <path id="Path_385" data-name="Path 385" d="M393.6,164.4l10.867,17.454,10.867,17.454H439.21l-10.867-17.454L417.476,164.4Z" transform="translate(-215.599 -164.4)" fill="#fff" opacity="0.2"/>
      <path id="Path_387" data-name="Path 387" d="M359.9,164.4l10.209,17.454,10.209,17.454h22.558l-10.209-17.454L382.458,164.4Z" transform="translate(-244.9 -164.4)" fill="#fff" opacity="0.2"/>
      <path id="Path_389" data-name="Path 389" d="M326.5,164.4l9.55,17.454,9.55,17.454h20.912l-9.55-17.454-9.55-17.454Z" transform="translate(-271.5 -164.4)" fill="#fff" opacity="0.2"/>
      <path id="Path_392" data-name="Path 392" d="M292.2,164.4l9.221,17.454,9.056,17.454h20.088l-9.056-17.454L312.288,164.4Z" transform="translate(-282.2 -164.4)" fill="#fff" opacity="0.2"/>
      <path id="Intersection_16" data-name="Intersection 16" d="M19.43,34.907,9.715,17.454,0,0H21.241l9.715,17.454L40.261,34.17a4.976,4.976,0,0,1-2.614.737Z" transform="translate(230 0)" fill="#fff" opacity="0.2"/>
    </g>
    <g id="Group_1919" data-name="Group 1919" transform="translate(40 223.316)">
      <rect id="Rectangle_1051-2" data-name="Rectangle 1051" width="280.249" height="34.908" rx="5" transform="translate(0 0)" fill="url(#linear-gradient-3)"/>
      <path id="Path_385-2" data-name="Path 385" d="M393.6,164.4l10.867,17.454,10.867,17.454H439.21l-10.867-17.454L417.476,164.4Z" transform="translate(-221.753 -164.4)" fill="#fff" opacity="0.2"/>
      <path id="Path_1687" data-name="Path 1687" d="M393.6,164.4l10.867,17.454,10.867,17.454H439.21l-10.867-17.454L417.476,164.4Z" transform="translate(-279.753 -164.4)" fill="#fff" opacity="0.2"/>
      <path id="Path_389-2" data-name="Path 389" d="M326.5,164.4l9.55,17.454,9.55,17.454h20.912l-9.55-17.454-9.55-17.454Z" transform="translate(-265.653 -164.4)" fill="#fff" opacity="0.2"/>
      <path id="Path_392-2" data-name="Path 392" d="M292.2,164.4l9.221,17.454,9.056,17.454h20.088l-9.056-17.454L312.288,164.4Z" transform="translate(-282.353 -164.4)" fill="#fff" opacity="0.2"/>
      <path id="Intersection_16-2" data-name="Intersection 16" d="M19.43,34.907,9.715,17.454,0,0H21.241l9.715,17.454L40.261,34.17a4.976,4.976,0,0,1-2.614.737Z" transform="translate(229.847 0)" fill="#fff" opacity="0.2"/>
    </g>
    <g id="Group_8709" data-name="Group 8709" transform="translate(8581 3219.043)">
      <path id="Path_1691" data-name="Path 1691" d="M63.114,17.946a12,12,0,0,1,20.772,0l52.69,91.043A12,12,0,0,1,126.19,127H20.81a12,12,0,0,1-10.386-18.011Z" transform="translate(-8474.792 -3022)" fill="url(#linear-gradient-5)"/>
      <g id="Group_8707" data-name="Group 8707" transform="translate(-8582.71 -3215.756)">
        <path id="Path_1688" data-name="Path 1688" d="M34.742,4.121l-7.285,7.285a4.981,4.981,0,0,0,0,7.045l3.522,3.522a4.982,4.982,0,0,0,7.045,0l7.285-7.285A14.745,14.745,0,0,1,24.615,31.859L11.847,44.628A4.981,4.981,0,0,1,4.8,37.583L17.571,24.814A14.745,14.745,0,0,1,34.742,4.121Z" transform="translate(156.367 252.158)" fill="#fff" fill-rule="evenodd"/>
        <path id="Path_1689" data-name="Path 1689" d="M21.258,6.366l3.522,3.522a2.491,2.491,0,0,1,0,3.522l-3.436,3.436a2.49,2.49,0,0,1-3.522,0L14.3,13.324a2.49,2.49,0,0,1,0-3.522l3.436-3.436A2.491,2.491,0,0,1,21.258,6.366Z" transform="translate(171.184 255.401)" fill="#fff" fill-rule="evenodd" opacity="0.5"/>
      </g>
      <path id="Intersection_26" data-name="Intersection 26" d="M61.236,127A12,12,0,0,1,50.85,108.989L68.206,79l27.712,48Z" transform="translate(-8515.218 -3022)" fill="#fff" opacity="0.2"/>
    </g>
  </g>
</svg>
