<svg xmlns="http://www.w3.org/2000/svg" width="20.097" height="20.067" viewBox="0 0 20.097 20.067">
  <g id="Group_8638" data-name="Group 8638" transform="translate(-1191.952 -156.966)">
    <path id="Path_443" data-name="Path 443" d="M19.07,4.93a10,10,0,0,0-16.28,11,1.06,1.06,0,0,1,.09.64L2,20.8A.994.994,0,0,0,3,22h.2l4.28-.86a1.26,1.26,0,0,1,.64.09,10,10,0,0,0,11-16.28Zm.83,8.36a8,8,0,0,1-11,6.08,3.26,3.26,0,0,0-1.25-.26,3.43,3.43,0,0,0-.56.05l-2.82.57.57-2.82a3.09,3.09,0,0,0-.21-1.81A8,8,0,1,1,19.9,13.29Z" transform="translate(1189.977 154.988)" fill="#fff"/>
    <path id="Path_533" data-name="Path 533" d="M13.845,11.781l-.006.051c-1.5-.748-1.658-.848-1.851-.557-.134.2-.526.658-.644.793s-.238.143-.441.051a5.539,5.539,0,0,1-1.64-1.013A6.191,6.191,0,0,1,8.13,9.693c-.2-.345.218-.394.6-1.115a.375.375,0,0,0-.017-.358c-.051-.1-.459-1.106-.629-1.505s-.332-.348-.459-.348a1.016,1.016,0,0,0-.934.235c-1.1,1.211-.824,2.46.119,3.788,1.852,2.424,2.839,2.87,4.643,3.49a2.823,2.823,0,0,0,1.283.083,2.1,2.1,0,0,0,1.376-.973,1.689,1.689,0,0,0,.123-.972c-.05-.092-.184-.143-.389-.235Z" transform="translate(1191.88 156.824)" fill="#fff"/>
  </g>
</svg>
